<svg xmlns="http://www.w3.org/2000/svg" version="1.0" viewBox="0 0 921.2598 425.1968"><g fill-rule="evenodd"><path fill="#000268" d="M17.717 90.4837c0-37.744 30.757-68.3465 68.6779-68.3465h748.4704c37.9371 0 68.6775 30.6024 68.6775 68.3465v244.2458c0 37.722-30.7404 68.3302-68.6775 68.3302H86.395c-37.9209 0-68.6778-30.6082-68.6778-68.3302V90.4837z"/><path fill="#fff" d="M45.904 92.8222v239.591c0 23.5818 19.225 42.7079 42.9393 42.7079H480.974V50.1144H88.8433c-23.7143 0-42.9392 19.1257-42.9392 42.7078zM582.2935 211.421c0 15.2543-7.5447 25.7382-20.036 25.7382-11.0352 0-20.2344-10.484-20.2344-24.4534 0-14.3387 8.0905-24.9991 20.2344-24.9991 12.8775 0 20.036 11.03 20.036 23.7143zm-73.3432 87.4888h33.0728v-52.0224h.3696c6.265 11.3995 18.7728 15.6238 30.3488 15.6238 28.4846 0 43.739-23.5212 43.739-51.8294 0-23.1516-14.5152-48.3494-40.9926-48.3494-15.0612 0-29.0307 6.0721-35.6652 19.4952h-.3695v-17.2725H508.95v134.3547zm152.7027-68.9311c0-9.1825 8.8129-12.6624 20.0413-12.6624 4.9581 0 9.7451.3476 13.9695.546 0 11.2065-7.903 22.6056-20.4109 22.6056-7.7209 0-13.6-3.8547-13.6-10.4892zm66.7144 30.3321c-1.4616-7.5277-1.8311-15.0778-1.8311-22.6056v-35.6598c0-29.2234-21.1277-39.713-45.5808-39.713-14.146 0-26.4607 2.0239-38.2298 6.8109l.5627 22.4348c9.1601-5.1566 19.8425-7.1805 30.5029-7.1805 11.9289 0 21.674 3.5022 21.8725 16.5561-4.2244-.7391-10.12-1.3018-15.4474-1.3018-17.6312 0-49.4359 3.5022-49.4359 32.7203 0 20.7804 16.9034 30.139 35.836 30.139 13.5999 0 22.7986-5.3107 30.332-17.2782h.3696c0 4.9801.5404 9.9212.7392 15.0778h30.3101zm14.8844 38.599c6.8053 1.4783 13.6 2.2227 20.5816 2.2227 30.3325 0 37.4907-23.3503 46.8663-47.4342l35.1191-89.1432h-33.0951l-19.6665 62.4897h-.3695l-20.5874-62.4897h-35.6428l38.7755 97.9561c-2.3935 8.46-8.6365 13.247-16.7322 13.247-4.6106 0-8.6365-.5627-13.054-2.024l-2.195 25.1756z"/><path fill="#ff0007" d="M126.7035 211.614c0-13.0538 6.4414-23.9073 18.7562-23.9073 14.885 0 21.128 11.9452 21.128 22.6056 0 14.7086-9.3756 24.6299-21.128 24.6299-9.9213 0-18.7562-8.4434-18.7562-23.3281zm71.8707-47.059h-29.9626v17.2726h-.3476c-7.004-11.7687-18.4089-19.4952-32.5491-19.4952-29.7698 0-43.193 21.3427-43.193 49.8274 0 28.3082 16.3627 48.151 42.625 48.151 13.2523 0 24.2823-5.1566 32.1796-16.3626h.3695v5.1562c0 18.7398-10.2908 27.7459-29.3945 27.7459-13.793 0-22.2584-2.9396-32.3564-7.8974l-1.6544 26.1075c7.7046 2.763 20.7584 6.0721 36.5807 6.0721 38.599 0 57.7028-12.69 57.7028-52.0281v-84.5493zm55.9158-39.884h-33.0896v24.2603H254.49V124.671zm-33.073 135.64h33.073v-95.756h-33.073v95.7557zm125.1947-96.8698c-3.3091-.5408-7.357-1.1087-11.2064-1.1087-14.3387 0-22.6056 7.7265-28.3082 19.8648h-.3696v-17.6421h-30.139v95.7557h33.0785v-40.4245c0-18.7562 8.6531-29.9626 24.0839-29.9626 3.8714 0 7.5278 0 11.2064 1.0864l1.6544-27.569zm56.9643 75.9185c-15.2543 0-21.4972-12.6843-21.4972-26.8303 0-14.3387 6.243-27.023 21.4972-27.023 15.271 0 21.5192 12.6843 21.5192 27.023 0 14.146-6.2482 26.8303-21.5192 26.8303zm0 23.1516c31.617 0 55.7008-18.3646 55.7008-49.9819 0-31.81-24.0839-50.197-55.7008-50.197-31.6116 0-55.6788 18.387-55.6788 50.197 0 31.6173 24.0672 49.982 55.6788 49.982z"/></g></svg>