<svg xmlns="http://www.w3.org/2000/svg" fill="none" viewBox="0 0 32 24"><path fill="#fff" stroke="#e6e6e6" d="M4.129.5h23.742C29.8701.5 31.5 2.1398 31.5 4.174v15.652c0 2.0341-1.6299 3.6739-3.629 3.6739H4.129C2.13 23.5.5 21.8602.5 19.8261V4.1739C.5 2.1398 2.1299.5 4.129.5z"/><g fill-rule="evenodd" clip-rule="evenodd"><path fill="#019acc" d="M16.0818 10.8766c1.6211 0 2.9352-1.313 2.9352-2.9328 0-1.6197-1.314-2.9329-2.9352-2.9329-1.621 0-2.9351 1.3132-2.9351 2.9329 0 1.6197 1.314 2.9328 2.9351 2.9328z"/><path fill="#019acc" d="M15.4362 11.5283c-.9816 0-1.827-.3813-2.3646-.805-3.2045.336-5.5877.8123-5.5877.8123v1.247h17.0323V10.157s-2.945-.018-6.2694.1597c-.5591.6057-1.5453 1.2116-2.8106 1.2116z"/><path fill="#003466" d="M9.5034 18.2609H7.484v-4.6957h2.0195v2.113l1.2002-2.113h2.4215l-1.7731 2.4266 1.673 2.269h-2.3108l-1.197-1.7648zm14.9807-.2493c-.4766.1566-1.103.2493-1.6634.2493-1.9979 0-3.4647-.6116-3.4647-2.3901 0-1.6073 1.4217-2.3056 3.3652-2.3056.5402 0 1.2263.0642 1.763.2487l-.0008 1.5568c-.3977-.2594-.7955-.4211-1.365-.4211-.7413 0-1.4822.3931-1.4822.9637 0 .572.7376.9638 1.4821.9638.5605 0 .9674-.1671 1.3651-.4146zm-9.0088-2.4564h1.0058c.3887 0 .541-.1758.541-.4454 0-.309-.1537-.4633-.513-.4633h-1.034zm0 1.751h1.0529c.3946 0 .529-.1824.529-.452 0-.2695-.1357-.4632-.5245-.4632h-1.0576zm-2.0195-3.741h4.0823c1.0604 0 1.408.4604 1.408 1.1771 0 .8023-.6422 1.151-1.302 1.1903v.0132c.6774.0593 1.3372.1447 1.3372 1.0917 0 .6183-.3475 1.2233-1.514 1.2233h-4.0115z"/></g></svg>