<svg xmlns="http://www.w3.org/2000/svg" fill="none" viewBox="0 0 32 24"><rect width="32" height="24" fill="#FBB427" rx="4"/><g filter="url(#a)"><path fill="#fff" d="M4.3407 11.5804h8.0413a.3407.3407 0 0 0 .3408-.3407v-.7369a.3408.3408 0 0 0-.3408-.3408H4.3407a.3408.3408 0 0 0-.3408.3408v.7369c0 .1882.1526.3407.3408.3407Z"/></g><g filter="url(#b)"><path fill="#fff" d="M4.8017 16.5059h7.1194a.3407.3407 0 0 0 .3407-.3407v-4.9781H4.4609v4.9781c0 .1882.1526.3407.3408.3407Z"/></g><path fill="#FBB427" d="M12.2618 11.5804H4.4609v.4256h7.8009v-.4256Z"/><path fill="#FBB427" d="M8.0579 16.5059V10.162h-.4256v6.3439h.4256Zm1.0965 0V10.162H8.729v6.3439h.4255Z"/><path fill="#fff" d="M8.3613 10.162a.186.186 0 0 1-.1418-.0648.1858.1858 0 0 1-.0438-.149c.004-.028.4233-2.7862 2.6231-2.7862.969 0 1.3128.5236 1.3128.9717 0 .8422-1.1636 2.0283-3.7503 2.0283Zm2.4375-2.625c-1.542 0-2.0678 1.6444-2.2084 2.2463 2.0546-.0638 3.1462-.981 3.1462-1.6496 0-.1665-.0701-.3038-.2077-.4069-.165-.1241-.4178-.1898-.7301-.1898Z"/><path fill="#fff" d="M8.3617 10.162c-2.5868 0-3.7504-1.186-3.7504-2.0283 0-.2828.1272-.534.3574-.7069.2306-.1733.561-.2648.9555-.2648 2.1997 0 2.619 2.7582 2.6231 2.7863a.1853.1853 0 0 1-.0439.1489.186.186 0 0 1-.1417.0648ZM5.9242 7.537c-.5786 0-.9379.2284-.9379.5967 0 .669 1.0924 1.5862 3.1481 1.65-.136-.6057-.6487-2.2466-2.2102-2.2466Z"/><path stroke="#fff" stroke-dasharray="4 4" stroke-linecap="round" stroke-linejoin="round" d="M15.5282 2.5v18.668"/><g filter="url(#c)"><path fill="#fff" fill-rule="evenodd" d="M27.0001 8.0111c0-.5156-.3944-.9663-.9085-.9267a2.1642 2.1642 0 0 0-.1556.0172c-1.507.2274-1.6495 3.7331-1.628 5.4506.0066.5265.4409.9342.9674.9342h.7247c.5523 0 1-.4477 1-1V8.0111Zm0 6.0296a.5542.5542 0 0 0-1.1065-.0461l-.1661 1.9939a.6374.6374 0 1 0 1.2726.053v-2.0008Z" clip-rule="evenodd"/></g><g filter="url(#d)"><path fill="#fff" fill-rule="evenodd" d="M21.3986 7.5591a.57.57 0 0 0-1.14 0v1.995a.285.285 0 0 1-.57 0V7.559a.57.57 0 1 0-1.14 0v2.3861a.997.997 0 0 0 .0574.3347c.1032.388.3395.7218.657.9495.4595.3296.9437.7875.9154 1.3523l-.1621 3.2433c-.0233.4646.3471.8539.8123.8539.4651 0 .8355-.3894.8122-.8539l-.1621-3.2433c-.0283-.5648.456-1.0227.9154-1.3523a1.7116 1.7116 0 0 0 .6571-.9497.9988.9988 0 0 0 .0573-.3345v-2.386a.57.57 0 0 0-1.14 0v1.995a.285.285 0 0 1-.5699 0V7.559Z" clip-rule="evenodd"/></g><defs><filter id="a" width="10.7229" height="3.4184" x="2.9999" y="10.162" color-interpolation-filters="sRGB" filterUnits="userSpaceOnUse"><feFlood flood-opacity="0" result="BackgroundImageFix"/><feColorMatrix in="SourceAlpha" values="0 0 0 0 0 0 0 0 0 0 0 0 0 0 0 0 0 0 127 0"/><feOffset dy="1"/><feGaussianBlur stdDeviation=".5"/><feColorMatrix values="0 0 0 0 0 0 0 0 0 0 0 0 0 0 0 0 0 0 0.2 0"/><feBlend in2="BackgroundImageFix" result="effect1_dropShadow"/><feBlend in="SourceGraphic" in2="effect1_dropShadow" result="shape"/></filter><filter id="b" width="9.8009" height="7.3188" x="3.4609" y="11.1871" color-interpolation-filters="sRGB" filterUnits="userSpaceOnUse"><feFlood flood-opacity="0" result="BackgroundImageFix"/><feColorMatrix in="SourceAlpha" values="0 0 0 0 0 0 0 0 0 0 0 0 0 0 0 0 0 0 127 0"/><feOffset dy="1"/><feGaussianBlur stdDeviation=".5"/><feColorMatrix values="0 0 0 0 0 0 0 0 0 0 0 0 0 0 0 0 0 0 0.2 0"/><feBlend in2="BackgroundImageFix" result="effect1_dropShadow"/><feBlend in="SourceGraphic" in2="effect1_dropShadow" result="shape"/></filter><filter id="c" width="4.694" height="11.5969" x="23.3062" y="7.082" color-interpolation-filters="sRGB" filterUnits="userSpaceOnUse"><feFlood flood-opacity="0" result="BackgroundImageFix"/><feColorMatrix in="SourceAlpha" values="0 0 0 0 0 0 0 0 0 0 0 0 0 0 0 0 0 0 127 0"/><feOffset dy="1"/><feGaussianBlur stdDeviation=".5"/><feColorMatrix values="0 0 0 0 0 0 0 0 0 0 0 0 0 0 0 0 0 0 0.2 0"/><feBlend in2="BackgroundImageFix" result="effect1_dropShadow"/><feBlend in="SourceGraphic" in2="effect1_dropShadow" result="shape"/></filter><filter id="d" width="6.5599" height="11.6898" x="17.5486" y="6.9891" color-interpolation-filters="sRGB" filterUnits="userSpaceOnUse"><feFlood flood-opacity="0" result="BackgroundImageFix"/><feColorMatrix in="SourceAlpha" values="0 0 0 0 0 0 0 0 0 0 0 0 0 0 0 0 0 0 127 0"/><feOffset dy="1"/><feGaussianBlur stdDeviation=".5"/><feColorMatrix values="0 0 0 0 0 0 0 0 0 0 0 0 0 0 0 0 0 0 0.07 0"/><feBlend in2="BackgroundImageFix" result="effect1_dropShadow"/><feBlend in="SourceGraphic" in2="effect1_dropShadow" result="shape"/></filter></defs></svg>