<svg xmlns="http://www.w3.org/2000/svg" fill="none" viewBox="0 0 32 24"><filter id="b" width="7.25" height="9.2351" x="9.5" y="8.7649" color-interpolation-filters="sRGB" filterUnits="userSpaceOnUse"><feFlood flood-opacity="0" result="BackgroundImageFix"/><feColorMatrix in="SourceAlpha" values="0 0 0 0 0 0 0 0 0 0 0 0 0 0 0 0 0 0 255 0"/><feOffset dy="1"/><feGaussianBlur stdDeviation=".5"/><feColorMatrix values="0 0 0 0 0 0 0 0 0 0 0 0 0 0 0 0 0 0 0.2 0"/><feBlend in2="BackgroundImageFix" result="effect1_dropShadow"/><feBlend in="SourceGraphic" in2="effect1_dropShadow" result="shape"/></filter><filter id="c" width="8.4615" height="11.0331" x="11.6201" y="5" color-interpolation-filters="sRGB" filterUnits="userSpaceOnUse"><feFlood flood-opacity="0" result="BackgroundImageFix"/><feColorMatrix in="SourceAlpha" values="0 0 0 0 0 0 0 0 0 0 0 0 0 0 0 0 0 0 255 0"/><feOffset dy="1"/><feGaussianBlur stdDeviation=".5"/><feColorMatrix values="0 0 0 0 0 0 0 0 0 0 0 0 0 0 0 0 0 0 0.2 0"/><feBlend in2="BackgroundImageFix" result="effect1_dropShadow"/><feBlend in="SourceGraphic" in2="effect1_dropShadow" result="shape"/></filter><filter id="d" width="8.4615" height="11.0331" x="5.4615" y="5" color-interpolation-filters="sRGB" filterUnits="userSpaceOnUse"><feFlood flood-opacity="0" result="BackgroundImageFix"/><feColorMatrix in="SourceAlpha" values="0 0 0 0 0 0 0 0 0 0 0 0 0 0 0 0 0 0 255 0"/><feOffset dy="1"/><feGaussianBlur stdDeviation=".5"/><feColorMatrix values="0 0 0 0 0 0 0 0 0 0 0 0 0 0 0 0 0 0 0.2 0"/><feBlend in2="BackgroundImageFix" result="effect1_dropShadow"/><feBlend in="SourceGraphic" in2="effect1_dropShadow" result="shape"/></filter><filter id="e" width="8.4615" height="9.2163" x="8.6924" y="6.8105" color-interpolation-filters="sRGB" filterUnits="userSpaceOnUse"><feFlood flood-opacity="0" result="BackgroundImageFix"/><feColorMatrix in="SourceAlpha" values="0 0 0 0 0 0 0 0 0 0 0 0 0 0 0 0 0 0 255 0"/><feOffset dy="1"/><feGaussianBlur stdDeviation=".5"/><feColorMatrix values="0 0 0 0 0 0 0 0 0 0 0 0 0 0 0 0 0 0 0.2 0"/><feBlend in2="BackgroundImageFix" result="effect1_dropShadow"/><feBlend in="SourceGraphic" in2="effect1_dropShadow" result="shape"/></filter><linearGradient id="a" x2="1" gradientTransform="matrix(32 24 -32 42.6667 16 -21.3333)" gradientUnits="userSpaceOnUse"><stop offset="0" stop-color="#00b2ff"/><stop offset=".8061" stop-color="#007eff"/><stop offset="1" stop-color="#0072ff"/></linearGradient><path fill="url(#a)" d="M28 0H4C1.7909 0 0 1.7909 0 4v16c0 2.2091 1.7909 4 4 4h24c2.2091 0 4-1.7909 4-4V4c0-2.2091-1.7909-4-4-4z"/><path fill="#fff" d="M32 8H0v3h32z"/><g filter="url(#b)"><path fill="#fff" d="m10.5 8.7837 5.25-.0188V16l-2.625-1.9732L10.5 16z"/></g><g filter="url(#c)"><path fill="#fff" d="m13.0875 7.5982 4.8462-2.514c.4046-.21.8849-.0138 1.0728.438a.9913.9913 0 0 1 .0751.38v7.2289c0 .4982-.3616.902-.8076.902a.7376.7376 0 0 1-.3403-.084l-4.8462-2.514c-.285-.1478-.4674-.467-.4674-.818V8.4163c0-.351.1824-.6702.4674-.8181z"/></g><g filter="url(#d)"><path fill="#fff" d="m12.4557 7.5982-4.8462-2.514c-.4046-.21-.8849-.0138-1.0728.438a.9915.9915 0 0 0-.0751.38v7.2289c0 .4982.3616.902.8076.902a.7376.7376 0 0 0 .3403-.084l4.8462-2.514c.285-.1478.4674-.467.4674-.818V8.4163c0-.351-.1824-.6702-.4674-.8181z"/></g><g filter="url(#e)"><path fill="#fff" d="M12.9231 14.0268c1.7843 0 3.2308-1.6155 3.2308-3.6082s-1.4465-3.6081-3.2308-3.6081-3.2307 1.6154-3.2307 3.6081 1.4464 3.6082 3.2308 3.6082z"/></g></svg>