<svg xmlns="http://www.w3.org/2000/svg" fill="none" viewBox="0 0 32 24"><rect width="32" height="24" fill="#fff" rx="4"/><rect width="32" height="24" fill="url(#a)" rx="4"/><path fill="#fff" fill-rule="evenodd" d="M12.0126 6.3815c-.4253.3815-.4944 1.0144-.6325 2.2804l-.2443 2.2392c-.1685 1.5448-.2528 2.3172.1922 2.8133.4449.4961 1.222.4961 2.776.4961h3.7919c1.5541 0 2.3312 0 2.7761-.4961.445-.4961.3607-1.2685.1922-2.8133l-.2443-2.2392c-.1381-1.266-.2072-1.899-.6325-2.2804C19.562 6 18.9252 6 17.6517 6h-3.3034c-1.2735 0-1.9103 0-2.3357.3815Zm1.9346 4.097a.5598.5598 0 1 0 0 1.1196h4.1056a.5598.5598 0 1 0 0-1.1196h-4.1056Zm-.5598-1.6795a.5598.5598 0 0 1 .5598-.5598h2.3638a.5599.5599 0 1 1 0 1.1197h-2.3638a.5598.5598 0 0 1-.5598-.5599Z" clip-rule="evenodd"/><path fill="#fff" d="m18.2421 16.8081-.506-1.1155c-.0602-.1327-.1983-.2188-.351-.2188h-2.7702c-.1527 0-.2908.0861-.351.2188l-.506 1.1155c-.0301.0663-.0991.1093-.1755.1093h-.447c-.3164 0-.5729.2424-.5729.5414s.2565.5413.5729.5413h5.7292c.3164 0 .5729-.2423.5729-.5413 0-.299-.2565-.5414-.5729-.5414h-.447c-.0764 0-.1454-.043-.1755-.1093Z" opacity=".6"/><defs><linearGradient id="a" x1="0" x2="23.04" y1="24" y2="-6.72" gradientUnits="userSpaceOnUse"><stop stop-color="color(display-p3 .0549 .0329 .0235)"/><stop offset="1" stop-color="color(display-p3 .1451 .2784 .3922)"/></linearGradient></defs></svg>