<svg xmlns="http://www.w3.org/2000/svg" fill="none" viewBox="0 0 32 24"><rect width="32" height="24" fill="#d13239" rx="4"/><g fill-rule="evenodd" clip-rule="evenodd"><path fill="#fff" d="M11.446 7.7201c-.1272-.1347-.3105-.2394-.5125-.3217-.2132-.0823-.4488-.1421-.6807-.1833a5.7569 5.7569 0 0 0-.778-.0822c-.187-.0075-.3068-.0075-.3068-.0075H4.7056L3 17.4266h1.5934l.6284-3.8153 3.0897.015s1.2044.0486 2.0572-.404c.8529-.4526 1.081-1.4812 1.081-1.4812s.0935-.3815.1721-.8453c.086-.5125.1721-1.126.2169-1.4513.0187-.1422.03-.232.03-.232s.0224-.1047.0224-.2693c.0037-.2281-.0299-.5723-.2095-.9014a1.4807 1.4807 0 0 0-.2356-.3217zM10.2191 9.538c0 .0187-.1421.8453-.3291 1.8253-.0711.3741-.3591.5761-.6883.6471-.5461.116-1.1334.0935-1.1334.0935l-2.5809-.0074.5686-3.4226 2.3378.0075s.157-.0037.3777 0c.2507.0037.5836.015.8566.0524.2357.0299.4227.0785.4825.1533.0786.0973.1085.2245.1197.3367.015.1645-.0112.303-.0112.3142z"/><path fill="#d4d4d4" d="m12.9909 10.7349 1.6121.0037.0973-.6246s.172-1.1296.5573-1.3466c.1234-.071.3217-.1346.5499-.1758.4226-.0748.9575-.0823 1.3952-.0673.6695.0224.9239.03 1.6046.1085.6808.0785.5087.7368.5087.7368l-.1346.9838s-.0599.4414-.217.7144c-.1384.2431-.5199.4077-.7406.4788-.5311.172-2.349.6359-2.349.6359l-1.4289.4114s-.879.2544-1.369.7967c-.4937.5461-.6882 1.1633-.7556 1.485-.0673.3217-.4451 2.5473-.4451 2.5473l7.7129.0037.2581-1.5411-6.1007.0075.1084-.6284s.0711-.6471.3329-.8603c.0823-.0673.1235-.1571.6097-.3292.2918-.1047 1.2868-.3703 1.2868-.3703l2.3003-.6284s1.2568-.3216 1.7506-1.0099c.4937-.6845.6845-1.9974.6845-1.9974s.1346-1.2755.0299-1.6757c-.101-.4003-.4788-.879-.9388-1.0848-.4601-.2057-.9389-.3254-2.3266-.3067s-2.076.0823-2.7792.3441c-.7032.2581-1.1109.7294-1.369 1.3952-.2805.6322-.4451 1.9937-.4451 1.9937zm14.5204 2.8652 1.081-6.4785h-1.9151l-5.9623 6.4037-.2693 1.6234h5.2142l-.3815 2.2742 1.6009.0037.3778-2.2779 1.4774.0037L29 13.6001zm-1.5934.0038-3.3702-.0038 4.1033-4.3726z"/></g></svg>