<svg xmlns="http://www.w3.org/2000/svg" fill="none" viewBox="0 0 64 32"><g clip-path="url(#a)"><path fill="#6600F5" fill-rule="evenodd" d="M7 2C4.2386 2 2 4.2386 2 7v13c0 .5523-.4477 1-1 1s-1-.4477-1-1V7c0-3.866 3.134-7 7-7h12c.5523 0 1 .4477 1 1s-.4477 1-1 1H7Z" clip-rule="evenodd"/><path fill="#DF1A79" fill-rule="evenodd" d="M63 20c.5523 0 1 .4477 1 1v4c0 3.866-3.134 7-7 7H38c-.5523 0-1-.4477-1-1s.4477-1 1-1h19c2.7614 0 5-2.2386 5-5v-4c0-.5523.4477-1 1-1Z" clip-rule="evenodd"/><path fill="#FFD000" fill-rule="evenodd" d="M45 1c0-.5523.4477-1 1-1h11c3.866 0 7 3.134 7 7v7c0 .5523-.4477 1-1 1s-1-.4477-1-1V7c0-2.7614-2.2386-5-5-5H46c-.5523 0-1-.4477-1-1Z" clip-rule="evenodd"/><path fill="#1E1E1E" d="M4 8c0-2.2091 1.7909-4 4-4h48c2.2091 0 4 1.7909 4 4v16c0 2.2091-1.7909 4-4 4H8c-2.2091 0-4-1.7909-4-4V8Z"/><path fill="#FEFEFE" d="M19.6095 23.3469h-6.8898V12.0286c0-1.3821.5779-2.7193 1.5847-3.6656 1.0223-.9604 2.3579-1.4413 3.7615-1.3526 2.5902.1633 4.6976 2.3606 4.6976 4.8986 0 .8075-.113 1.6381-.2658 2.2976 1.2906.9116 2.1344 2.4146 2.1344 4.1118 0 2.7733-2.2538 5.0285-5.0226 5.0285Zm-2.2602-2.0983h2.2602c1.6143 0 2.9267-1.3153 2.9267-2.9302 0-.8049-.3249-1.5339-.8514-2.0649-.9965 1.8978-2.4156 3.5358-4.3355 4.9951Zm-2.535-5.8617v5.0761c2.3116-1.4747 3.8976-3.0999 4.9557-5.0709a3.3566 3.3566 0 0 0-.1618-.0039h-4.7926l-.0013-.0013Zm0-2.0983h4.7952c.3146 0 .6216.0296.9195.0849.0771-.4256.1387-.9425.1387-1.4645 0-1.4516-1.2264-2.7103-2.7341-2.8041-.8206-.0528-1.6001.2275-2.1947.7881-.5959.5606-.9246 1.3192-.9246 2.1369v1.26-.0013Zm28.7396-2.2226c.2479.2481.3724.5554.3724.9206 0 .3651-.1245.6685-.3724.9115-.2478.243-.5715.3652-.9683.3652-.3968 0-.7037-.1209-.9516-.3652-.2478-.243-.3724-.5464-.3724-.9115 0-.3652.1246-.6712.3724-.9206.2479-.2482.5651-.3729.9516-.3729.3866 0 .7205.1247.9683.3729Zm-14.4335.0002c.2479.2481.3725.5554.3725.9205 0 .3652-.1246.6686-.3725.9116-.2478.243-.5714.3652-.9683.3652-.3968 0-.7037-.1209-.9516-.3652-.2478-.243-.3724-.5464-.3724-.9116 0-.3651.1246-.6711.3724-.9205.2479-.2482.5651-.3729.9516-.3729.3866 0 .7205.1247.9683.3729Zm14.5327 2.958v9.1056h-2.1189v-8.7584l2.1189-.3472Zm-14.4393 0v9.1056h-2.119v-8.7584l2.119-.3472Zm24.1299 5.3722H47.846c.0668.8511.2864 1.4593.6626 1.8231.375.3652.872.5465 1.4897.5465.3866 0 .75-.063 1.0929-.1903.3416-.1273.7063-.3227 1.0928-.5889l.8772 1.2099c-.9709.7843-2.0535 1.1764-3.2452 1.1764-1.3356 0-2.3656-.4088-3.0886-1.2266-.723-.8177-1.0838-1.9337-1.0838-3.348 0-.8949.1541-1.6997.4636-2.412.3095-.7123.7564-1.2703 1.3407-1.674.5856-.4038 1.2803-.6056 2.0868-.6056 1.2252 0 2.1742.3895 2.8484 1.1687.6729.7792 1.0107 1.8656 1.0107 3.258 0 .1106-.0167.3973-.0501.8615v.0013Zm-2.0535-1.4748c0-1.5364-.5689-2.304-1.7054-2.304-.5188 0-.9246.1903-1.2174.5722-.2928.3818-.4662.9925-.5214 1.8321h3.4442v-.1003Zm-12.6031-7.3078v10.4414c0 .2391.1695.4333.3788.4333h.3352v1.89h-1.0287c-.994 0-1.7992-.9219-1.7992-2.061V10.8748l2.1151-.261h-.0012Zm-4.8916.0001v10.4414c0 .2391.1695.4333.3788.4333h.3352v1.89h-1.0287c-.994 0-1.7992-.9219-1.7992-2.061V10.8749l2.1151-.261h-.0012Z"/></g><defs><clipPath id="a"><path fill="#fff" d="M0 0h64v32H0z"/></clipPath></defs></svg>